<?xml version="1.0" standalone="no"?>
<!DOCTYPE svg PUBLIC "-//W3C//DTD SVG 20010904//EN"
 "http://www.w3.org/TR/2001/REC-SVG-20010904/DTD/svg10.dtd">
<svg version="1.0" xmlns="http://www.w3.org/2000/svg"
 width="24.000000pt" height="24.000000pt" viewBox="0 0 24.000000 24.000000"
 preserveAspectRatio="xMidYMid meet">

<g transform="translate(0.000000,24.000000) scale(0.100000,-0.100000)"
fill="#000000" stroke="none">
<path d="M25 95 c8 -35 20 -44 46 -38 10 3 19 0 19 -6 0 -6 14 -11 30 -11 17
0 30 5 30 11 0 6 9 9 19 6 26 -6 38 3 46 38 l7 30 -17 -23 c-9 -13 -23 -21
-31 -18 -8 3 -14 1 -14 -4 0 -6 -18 -10 -40 -10 -22 0 -40 4 -40 10 0 5 -6 7
-14 4 -8 -3 -22 5 -31 18 l-17 23 7 -30z"/>
</g>
</svg>
